<svg xmlns="http://www.w3.org/2000/svg" width="24" height="24" viewBox="0 0 24 24"><path d="M43,31a12,12,0,1,0-20.092,8.852.779.779,0,0,0,.139.123,11.968,11.968,0,0,0,15.905,0,.777.777,0,0,0,.138-.122A11.97,11.97,0,0,0,43,31ZM20.558,31a10.442,10.442,0,1,1,18.109,7.078,9.133,9.133,0,0,0-3.5-3.118,9.241,9.241,0,0,0-1.025-.443,5.454,5.454,0,1,0-6.285,0,9.167,9.167,0,0,0-4.526,3.559A10.4,10.4,0,0,1,20.558,31Zm6.545-.935a3.9,3.9,0,1,1,3.9,3.9A3.9,3.9,0,0,1,27.1,30.065Zm-2.61,9.093a7.638,7.638,0,0,1,13.013,0,10.41,10.41,0,0,1-13.013,0Z" transform="translate(-19 -19)"></path></svg>