<svg xmlns="http://www.w3.org/2000/svg" width="24" height="24" viewBox="0 0 27 23"><g transform="translate(17220.5 23152.5)"><path d="M1.857,22A1.861,1.861,0,0,1,0,20.138V1.862A1.861,1.861,0,0,1,1.857,0H24.143A1.861,1.861,0,0,1,26,1.862V20.138A1.861,1.861,0,0,1,24.143,22Zm-.169-1.862a.169.169,0,0,0,.169.169H24.143a.169.169,0,0,0,.169-.169V5.754H1.688Zm0-18.277v2.2H24.312v-2.2a.169.169,0,0,0-.169-.169H1.857A.169.169,0,0,0,1.688,1.862Zm5.4,7.108a.844.844,0,1,1,1.688,0,4.221,4.221,0,1,0,8.441,0,.844.844,0,1,1,1.688,0,5.909,5.909,0,1,1-11.818,0Z" transform="translate(-17220 -23152)"></path><path d="M24.143,22.5H1.857A2.362,2.362,0,0,1-.5,20.138V1.862A2.362,2.362,0,0,1,1.857-.5H24.143A2.362,2.362,0,0,1,26.5,1.862V20.138A2.362,2.362,0,0,1,24.143,22.5ZM1.857.5A1.361,1.361,0,0,0,.5,1.862V20.138A1.361,1.361,0,0,0,1.857,21.5H24.143A1.361,1.361,0,0,0,25.5,20.138V1.862A1.361,1.361,0,0,0,24.143.5ZM24.143,20.808H1.857a.67.67,0,0,1-.669-.669V5.254H24.812V20.138A.67.67,0,0,1,24.143,20.808Zm-21.955-1H23.812V6.254H2.188ZM13,15.392A6.423,6.423,0,0,1,6.591,8.969a1.344,1.344,0,1,1,2.688,0,3.721,3.721,0,1,0,7.441,0,1.344,1.344,0,1,1,2.688,0A6.423,6.423,0,0,1,13,15.392ZM7.935,8.623a.346.346,0,0,0-.344.346,5.409,5.409,0,1,0,10.818,0,.344.344,0,1,0-.688,0,4.721,4.721,0,1,1-9.441,0A.346.346,0,0,0,7.935,8.623ZM24.812,4.562H1.188v-2.7a.67.67,0,0,1,.669-.669H24.143a.67.67,0,0,1,.669.669Zm-22.623-1H23.812V2.192H2.188Z" transform="translate(-17220 -23152)" fill="rgba(0,0,0,0)"></path></g></svg>