<svg xmlns="http://www.w3.org/2000/svg" width="24" height="24" viewBox="0 0 25 22"><path d="M28.5,47a.786.786,0,0,1-.382-.1,36.991,36.991,0,0,1-6-4.341C18.058,38.937,16,35.323,16,31.817A6.744,6.744,0,0,1,18.015,27a6.861,6.861,0,0,1,4.861-2h0A6.874,6.874,0,0,1,28.5,27.893a6.923,6.923,0,0,1,8.273-2.367A6.8,6.8,0,0,1,41,31.817c0,3.506-2.058,7.12-6.118,10.743a37,37,0,0,1-6,4.341A.786.786,0,0,1,28.5,47ZM22.876,26.549a5.3,5.3,0,0,0-3.757,1.542,5.212,5.212,0,0,0-1.557,3.725c0,6.575,8.961,12.322,10.938,13.509,1.977-1.187,10.937-6.934,10.937-13.509a5.255,5.255,0,0,0-3.266-4.861,5.336,5.336,0,0,0-6.951,2.831.781.781,0,0,1-.721.476h0a.781.781,0,0,1-.721-.476,5.3,5.3,0,0,0-4.9-3.238Z" transform="translate(-16 -25)"></path></svg>